# xmcd
#
# Track frame offsets:
# 150
# 17435
# 31812
# 47169
# 66464
# 86158
# 102835
# 119029
# 135912
# 154412
# 175169
# 192916
# 211069
# 229047
# 247938
#
# Disc length: 3521 seconds
#
#
# Revision: 0
# Processed by: cddbd v1.5.2PL0 Copyright (c) Steve Scherf et al.
# Submitted via: FreeRIP 2.941 
#
DISCID=c50dbf0f
DTITLE=Acustico
DYEAR=1900
DGENRE=Axe
TTITLE0=Dias de Sol
TTITLE1=Que Arerê
TTITLE2=Tudo a ver
TTITLE3=Chama da paixão
TTITLE4=Pureza da Paixão
TTITLE5=Fácil de entender
TTITLE6=Mais uma vez
TTITLE7=Janaína
TTITLE8=Doce obsessão
TTITLE9=Uma noite e meia
TTITLE10=Pense em mim
TTITLE11=Cheiro de Amor no ar
TTITLE12=Esperando na janela
TTITLE13=Poeira Cristalina
TTITLE14=Auê
EXTD=
EXTT0=
EXTT1=
EXTT2=
EXTT3=
EXTT4=
EXTT5=
EXTT6=
EXTT7=
EXTT8=
EXTT9=
EXTT10=
EXTT11=
EXTT12=
EXTT13=
EXTT14=
PLAYORDER=
